<svg xmlns="http://www.w3.org/2000/svg" width="135" height="27" viewBox="0 0 135 27" fill="none">
  <path d="M133.976 11.8512L124.034 1.87997C122.772 0.614478 121.467 0.178101 119.443 0.178101H2.28542C1.30639 0.178101 0.501404 0.985399 0.501404 1.96725V24.2443C0.501404 25.2262 1.30639 26.0335 2.28542 26.0335H119.443C121.467 26.0335 122.772 25.5971 124.034 24.3316L133.976 14.3604C134.673 13.684 134.673 12.5494 133.976 11.8512Z" fill="#702283"/>
  <path fill-rule="evenodd" clip-rule="evenodd" d="M94.2712 13.1168C94.2712 9.73491 92.7482 7.74939 89.1584 7.74939C85.5904 7.74939 84.0457 9.73491 84.0457 13.1168C84.0457 16.4988 85.5686 18.4843 89.1584 18.4843C92.7482 18.4843 94.2712 16.4988 94.2712 13.1168ZM86.3519 13.1168C86.3519 11.0222 87.0045 9.73491 89.1584 9.73491C91.3123 9.73491 91.965 11.0222 91.965 13.1168C91.965 15.2114 91.3123 16.4988 89.1584 16.4988C87.0045 16.4988 86.3519 15.2114 86.3519 13.1168Z" fill="white"/>
  <path fill-rule="evenodd" clip-rule="evenodd" d="M38.7925 18.2443V7.98939H42.7522C46.2985 7.98939 47.7344 9.97491 47.7344 13.1168C47.7344 16.2587 46.2767 18.2443 42.7522 18.2443H38.7925ZM42.6869 16.2151C44.819 16.2151 45.45 14.9496 45.45 13.1168C45.45 11.284 44.819 10.0185 42.6869 10.0185H41.0769V16.2151H42.6869Z" fill="white"/>
  <path d="M57.7858 14.055H52.9559V16.2151H58.4385V18.2443H50.6497V7.98939H58.4385V10.0185H52.9559V12.0477H57.7858V14.055Z" fill="white"/>
  <path d="M63.66 11.7204L68.8598 18.2443H70.7526V7.98939H68.4682L68.5987 14.5132L63.3772 7.98939H61.4844V18.2443H63.7688L63.66 11.7204Z" fill="white"/>
  <path d="M78.9547 10.0185V18.2443H76.6485V10.0185H73.4068V7.98939H82.1964V10.0185H78.9547Z" fill="white"/>
  <path d="M104.54 18.2443L99.3404 11.7204L99.4492 18.2443H97.1648V7.98939H99.0576L104.257 14.5132L104.149 7.98939H106.433V18.2443H104.54Z" fill="white"/>
  <path d="M113.7 12.0695C112.22 11.9386 111.654 11.7859 111.654 11.0222C111.654 10.1713 112.198 9.80036 113.678 9.82218C115.027 9.82218 116.289 10.0622 117.202 10.4113V8.33849C116.31 7.94575 114.722 7.7712 113.7 7.7712C110.675 7.7712 109.414 9.01488 109.414 11.044C109.414 13.0296 110.327 13.7059 113.395 13.9678C114.874 14.0769 115.397 14.3387 115.397 15.1678C115.397 15.9969 114.809 16.4333 113.134 16.4333C111.763 16.4333 110.414 16.1497 109.588 15.8224V17.8952C110.306 18.2224 112.111 18.4843 113.134 18.4843C116.506 18.4843 117.681 17.0006 117.681 15.1678C117.681 12.9859 116.767 12.3313 113.7 12.0695Z" fill="white"/>
  <path d="M12.7502 15.386C12.3586 16.1715 11.6624 16.8042 10.6616 17.2624C9.68255 17.7206 8.79054 17.9388 8.00731 17.9388C7.1153 17.9606 6.57139 17.7643 6.39734 17.3933C6.22329 17.0224 6.13627 16.7388 6.13627 16.586V16.4333C6.13627 16.3897 6.17978 16.346 6.26681 16.3242C6.28856 16.3242 6.33208 16.3242 6.44086 16.346C6.52788 16.3679 6.65842 16.3679 6.85423 16.346L7.83326 16.3024C9.22567 16.2369 10.27 15.8878 10.9444 15.2551C11.6406 14.6223 12.0322 13.9241 12.1628 13.1168L12.228 12.6586C12.2498 12.5277 12.2498 12.4186 12.2498 12.3532C12.228 12.2877 12.2063 12.2441 12.141 12.2441L11.967 12.2659L11.2055 12.2877L10.5528 12.3314L9.87836 12.3968C9.5085 12.4405 9.20391 12.5059 8.96459 12.5714C8.72527 12.6368 8.57298 12.6586 8.48595 12.6586C8.33366 12.6368 8.22488 12.5932 8.15961 12.4841C8.09434 12.375 8.07258 12.2659 8.07258 12.135C8.07258 12.0041 8.09434 11.895 8.15961 11.7859C8.20312 11.6986 8.35541 11.5459 8.61649 11.2841C8.87757 11.0222 9.11689 10.9131 9.35621 10.9568L9.57377 11.0004C9.63904 11.0222 9.74782 11.044 9.87836 11.044H10.2482L10.7269 11.0004H11.3795L11.9017 10.9568C12.1193 10.9568 12.2498 10.935 12.2498 10.9131C12.2716 10.8913 12.2716 10.8695 12.2716 10.8259V10.7604L12.2498 10.6077V9.84401L12.2063 9.32036C12.2063 9.32036 12.1845 9.23308 12.2063 9.08035C12.2063 8.92762 12.2498 8.81853 12.3151 8.73125C12.3803 8.64397 12.4891 8.57852 12.6197 8.53488C12.7502 8.49124 12.8372 8.46942 12.8807 8.46942C13.3594 8.51306 13.664 8.68761 13.7727 8.94944C13.9033 9.21126 13.9468 9.45127 13.9468 9.64764L13.925 10.6295V10.804C13.925 10.8913 13.925 10.935 13.9468 10.935C13.9468 10.9568 13.9903 10.9568 14.0121 10.935L14.3384 10.9131L14.8388 10.935L15.9049 10.9568L17.4931 11.0877C17.7541 11.1095 17.9717 11.1531 18.124 11.1968C18.2763 11.2404 18.3416 11.3713 18.3416 11.6113C18.3416 11.8077 18.2545 11.9823 18.0805 12.135C17.9064 12.2877 17.0797 12.3314 15.5785 12.2659L14.643 12.2441L14.0991 12.2223C13.9685 12.2223 13.9033 12.2441 13.9033 12.2877V12.3532C13.9033 12.4405 14.0338 12.615 14.2949 12.855C14.556 13.095 15.1216 13.5532 15.9919 14.2296C16.8621 14.906 17.6889 15.4078 18.4504 15.7351C19.2336 16.0624 19.734 16.2369 19.9515 16.2806C20.1691 16.3024 20.2779 16.346 20.2779 16.3679C20.2779 16.3788 20.2833 16.3897 20.2888 16.4006C20.2942 16.4115 20.2996 16.4224 20.2996 16.4333V16.5424C20.2126 16.9133 19.9298 17.2624 19.4294 17.6334C18.929 17.9825 18.4721 18.157 18.037 18.157C17.7759 18.157 17.5366 18.0697 17.3408 17.8734C17.1232 17.6988 16.7098 17.2624 16.0789 16.586C15.448 15.9097 14.9693 15.386 14.6212 14.9714C14.381 14.6662 14.1997 14.4556 14.0773 14.3135C14.0335 14.2626 13.9972 14.2205 13.9685 14.186C13.9019 14.1191 13.8516 14.0605 13.8126 14.0151C13.788 13.9863 13.7678 13.9629 13.751 13.946L13.5987 13.7278L13.5552 13.706L13.4899 13.7714C13.3811 14.0551 13.1418 14.5787 12.7502 15.386Z" fill="white"/>
  <path d="M31.9175 12.1568C31.7652 12.0913 31.6347 12.0477 31.4824 12.0477C31.4627 12.0646 31.4438 12.0808 31.4254 12.0964C31.302 12.2019 31.2073 12.2828 31.1125 12.3968C31.069 12.4623 31.0037 12.6586 30.9602 12.9423C30.9167 13.2478 30.8297 13.5096 30.7427 13.7496L30.5469 14.2296C30.4381 14.4478 30.3728 14.5569 30.3293 14.5569C30.2858 14.5787 30.2205 14.4914 30.1335 14.3387C30.0465 14.186 29.9594 13.946 29.8507 13.6405C29.7419 13.335 29.6984 13.0732 29.6766 12.855C29.6548 12.6586 29.6548 12.3968 29.6548 12.0914C29.6548 11.9168 29.6548 11.8077 29.6984 11.7641C29.7419 11.7204 29.8071 11.6986 29.9377 11.6986H30.4381L31.1778 11.6768C32.3526 11.655 32.9836 11.6113 33.0923 11.5022C33.2011 11.3931 33.2664 11.2841 33.2664 11.1313C33.2664 10.8695 33.1141 10.7168 32.7878 10.6731H32.3744L31.6564 10.6513H30.8732C30.6733 10.6513 30.5142 10.6595 30.3909 10.6658C30.313 10.6698 30.2493 10.6731 30.1988 10.6731C30.0682 10.6949 29.9812 10.6949 29.9594 10.6731C29.8507 10.6731 29.7636 10.6513 29.7201 10.6077C29.6766 10.564 29.6548 10.4768 29.6548 10.3458C29.6766 10.2367 29.6766 10.0622 29.6766 9.82219C29.6766 9.71309 29.682 9.59854 29.6875 9.484C29.6929 9.36945 29.6984 9.2549 29.6984 9.1458C29.6984 8.9058 29.6548 8.70942 29.5678 8.53487C29.459 8.36032 29.2632 8.27305 28.9586 8.27305C28.5235 8.27305 28.2624 8.51306 28.1972 8.94943C28.1754 9.03671 28.1754 9.10216 28.1754 9.18944L28.1972 9.36399L28.2189 10.1058L28.2407 10.3677V10.4768C28.2407 10.5422 28.2407 10.5858 28.2189 10.6077C28.1972 10.6295 28.1537 10.6513 28.0449 10.6513H27.675C27.4792 10.6513 27.2181 10.6513 26.8483 10.6731C26.6896 10.6831 26.5401 10.6885 26.4015 10.6935C26.2361 10.6995 26.0865 10.7049 25.9563 10.7168H25.3906C25.2383 10.7168 25.1295 10.6731 25.0425 10.5858L24.8032 10.3895C24.6726 10.2804 24.4986 10.2149 24.3463 10.2149C24.194 10.2149 24.02 10.2804 23.8241 10.3895C23.6283 10.4986 23.5413 10.6513 23.5196 10.8695C23.5196 11.0877 23.5413 11.2841 23.5848 11.4586L23.7589 12.0914C23.8024 12.2659 23.8459 12.4841 23.8677 12.6805C23.8945 12.8017 23.9048 12.9146 23.9139 13.0141C23.9195 13.0757 23.9246 13.1322 23.9329 13.1823C23.9329 13.2914 23.9329 13.5314 23.8894 13.9023C23.8677 14.2732 23.7806 14.6223 23.6283 14.9496C23.476 15.2769 23.2802 15.6042 23.0409 15.9315C22.8016 16.2806 22.5188 16.4988 22.1924 16.6079L21.6703 16.7824C21.431 16.8915 21.3222 17.0006 21.3222 17.1097C21.3222 17.197 21.431 17.3715 21.6268 17.6115C21.8226 17.8515 22.1054 18.0043 22.4535 18.0043C22.7581 18.0261 23.1279 17.8952 23.6066 17.6552C24.0852 17.4152 24.4116 17.0442 24.5856 16.5424C24.7814 16.0406 24.8902 15.5387 24.9555 15.0369C25.0207 14.5351 25.0643 14.2296 25.086 14.1205C25.1078 14.0114 25.1513 13.946 25.1948 13.8805C25.2383 13.8369 25.4341 13.7932 25.7387 13.7496L26.1738 13.7059C26.5872 13.6841 26.8483 13.7059 26.9788 13.815C27.0876 13.9241 27.1529 14.0987 27.1746 14.3823C27.1746 14.8405 27.0658 15.2551 26.87 15.6042C26.6742 15.9533 26.3479 16.1278 25.891 16.106C25.6952 16.106 25.5647 16.0842 25.4341 16.0406L25.2383 15.9751C25.1513 15.9751 25.1078 16.0187 25.1078 16.0624C25.086 16.106 25.1078 16.1497 25.1513 16.1933L25.3471 16.586C25.5647 16.9133 25.9345 17.0661 26.4784 17.0442C27.0876 17.0442 27.5445 16.826 27.8273 16.3897C28.1101 15.9533 28.2624 15.6042 28.3277 15.3205C28.3712 15.0369 28.4147 14.6442 28.4147 14.1423V13.575C28.4147 13.4005 28.393 13.2478 28.3277 13.1168C28.2624 12.9859 28.1319 12.8332 27.9579 12.6805C27.762 12.5059 27.588 12.4623 27.3922 12.5277L27.1094 12.6368C26.8483 12.7241 26.5002 12.7677 26.0433 12.7896H25.3906C25.2601 12.7896 25.173 12.7677 25.1295 12.7241C25.086 12.6805 25.0643 12.5059 25.0643 12.2441C25.0445 12.1649 25.0606 12.0857 25.08 11.9902C25.082 11.9804 25.084 11.9705 25.086 11.9604C25.1078 11.8513 25.3036 11.7859 25.6734 11.7422C26.0433 11.7204 26.8483 11.6986 28.1101 11.6768C28.2842 11.6768 28.3712 11.6986 28.393 11.7859C28.4147 11.8513 28.4365 12.0041 28.4582 12.2441C28.4728 12.4049 28.5069 12.5951 28.5475 12.8212C28.5675 12.9326 28.589 13.0527 28.6105 13.1823C28.6438 13.3323 28.6707 13.4632 28.6936 13.575C28.7308 13.756 28.7577 13.8869 28.7846 13.9678C28.8005 14.0157 28.8194 14.0811 28.8433 14.1641C28.8846 14.3079 28.9412 14.5043 29.0239 14.7533C29.0356 14.7864 29.0469 14.8187 29.0579 14.8501C29.17 15.1698 29.2493 15.3958 29.3285 15.4951C29.3428 15.5286 29.3561 15.5589 29.3681 15.5863C29.4108 15.684 29.4373 15.7447 29.4373 15.7787C29.4373 15.8224 29.372 15.8878 29.2632 15.9969L28.8716 16.3242C28.5888 16.6079 28.4147 16.7388 28.3495 16.7824C28.331 16.7916 28.2541 16.8244 28.1218 16.8806C27.9419 16.9571 27.6596 17.0771 27.2834 17.2406C27.0441 17.3279 26.9353 17.4152 26.9353 17.4806C26.9353 17.5461 26.9571 17.6115 27.0006 17.677C27.0223 17.7424 27.1094 17.8079 27.1964 17.8515C27.3052 17.917 27.4357 17.9388 27.588 17.917C28.306 17.917 28.9151 17.7206 29.372 17.3715C29.8289 17.0224 30.09 16.826 30.1117 16.826C30.1552 16.826 30.2858 16.957 30.4816 17.1751C30.6774 17.3933 31.0473 17.6988 31.5476 18.0915C32.048 18.4843 32.4832 18.6806 32.8313 18.6806C33.0488 18.6806 33.3534 18.6152 33.7233 18.4843C34.0931 18.3315 34.4195 18.157 34.7023 17.917C34.9851 17.677 35.1592 17.4588 35.2462 17.2406C35.3332 17.0442 35.3768 16.8697 35.3985 16.7606C35.4068 16.7189 35.4151 16.6836 35.4222 16.6535C35.4337 16.6047 35.442 16.5694 35.442 16.5424C35.442 16.4551 35.355 16.4115 35.1592 16.4551C34.9634 16.4988 34.7241 16.5206 34.4195 16.4988C33.1576 16.4551 32.2221 16.2369 31.6129 15.8442C31.4171 15.7133 31.3301 15.626 31.3301 15.5606C31.3301 15.5013 31.3658 15.442 31.421 15.3502C31.4268 15.3407 31.4327 15.3308 31.4389 15.3205C31.5041 15.2114 31.6129 15.0151 31.7652 14.6878C31.9175 14.3605 32.0263 13.9678 32.0916 13.5096C32.1351 13.3132 32.1351 13.0514 32.1351 12.7459C32.1133 12.4186 32.048 12.2441 31.9175 12.1568Z" fill="white"/>
  <path d="M30.9152 9.59049C30.8885 9.62206 30.8603 9.65547 30.8297 9.69127C30.6774 9.82219 30.6121 9.90946 30.6121 9.9531C30.6339 10.0186 30.6774 10.084 30.7427 10.1277C30.8297 10.1713 30.9602 10.1713 31.156 10.1058L31.6564 9.97492C32.1786 9.82219 32.5049 9.64764 32.6355 9.45127C32.679 9.36399 32.7007 9.23308 32.7007 9.03671C32.7007 8.84034 32.6137 8.68761 32.4179 8.60033C32.2221 8.51306 32.0916 8.46942 31.9828 8.46942C31.874 8.49124 31.7652 8.53487 31.6782 8.62215L31.3518 9.08035C31.3385 9.12048 31.3006 9.16061 31.2533 9.2108C31.2234 9.24247 31.1897 9.27815 31.156 9.32035C31.0728 9.40387 31.0022 9.48739 30.9152 9.59049Z" fill="white"/>
</svg>
