<svg xmlns="http://www.w3.org/2000/svg" width="85" height="84" viewBox="0 0 85 84" fill="none">
  <rect x="0.791351" y="54.0508" width="83.4175" height="29.4236" fill="#880016"/>
  <path d="M31.5467 74.0953C31.5467 74.522 31.382 74.7285 31.0525 74.7285C30.7231 74.7285 30.5584 74.522 30.5584 74.0953V73.6135H28.774V73.9852C28.774 75.403 29.6525 76.2703 31.0937 76.2703C31.8075 76.2703 32.4526 76.05 32.8781 75.637C33.2762 75.2791 33.386 74.9212 33.386 74.054V70.1997H31.5467V74.0953ZM39.1235 73.4621C39.1235 72.8289 38.945 72.4297 38.547 72.1544C38.1352 71.8653 37.5862 71.7139 36.8998 71.7139C36.1037 71.7139 35.4586 71.9204 35.0743 72.2783C34.7998 72.5536 34.6625 72.8564 34.6213 73.3657H36.1998V73.2969C36.1998 72.9528 36.4469 72.7601 36.8587 72.7601C37.2155 72.7601 37.4352 72.8977 37.4352 73.118C37.4352 73.2831 37.2842 73.3795 36.941 73.4346L35.6508 73.6686C34.8135 73.8338 34.4017 74.233 34.4017 74.9488C34.4017 75.6921 35.0331 76.2014 35.9527 76.2014C36.5018 76.2014 36.8587 76.0638 37.4352 75.6508C37.4763 75.8435 37.5038 75.9399 37.5862 76.0913H39.2607C39.1509 75.8986 39.1235 75.7747 39.1235 75.4581V73.4621ZM37.4626 74.4257C37.4626 74.9075 37.0783 75.2654 36.5567 75.2654C36.2684 75.2654 36.0626 75.1277 36.0626 74.9075C36.0626 74.7973 36.1175 74.701 36.2273 74.6322C36.3234 74.5771 36.3234 74.5771 36.7214 74.4532L37.4626 74.2054V74.4257ZM43.0354 71.7139C42.5138 71.7139 42.1569 71.8515 41.7863 72.2094V71.824H40.1529V77.4679H41.8824V75.7609C42.2393 76.0775 42.6236 76.229 43.1178 76.229C44.2982 76.229 45.0669 75.3617 45.0669 74.0127C45.0669 72.6224 44.2845 71.7139 43.0354 71.7139ZM42.5824 74.9625C42.0883 74.9625 41.8138 74.6046 41.8138 73.9577C41.8138 73.352 42.102 72.9803 42.5824 72.9803C43.0491 72.9803 43.3374 73.3382 43.3374 73.9714C43.3374 74.6046 43.0491 74.9625 42.5824 74.9625ZM50.4475 73.4621C50.4475 72.8289 50.269 72.4297 49.871 72.1544C49.4592 71.8653 48.8964 71.7139 48.2101 71.7139C47.414 71.7139 46.7689 71.9204 46.3846 72.2783C46.11 72.5536 45.9728 72.8564 45.9316 73.3657H47.5101V73.2969C47.5101 72.9528 47.7572 72.7601 48.1689 72.7601C48.5258 72.7601 48.7454 72.8977 48.7454 73.118C48.7454 73.2831 48.5944 73.3795 48.2513 73.4346L46.961 73.6686C46.1238 73.8338 45.712 74.233 45.712 74.9488C45.712 75.6921 46.3434 76.2014 47.263 76.2014C47.8121 76.2014 48.1689 76.0638 48.7454 75.6508C48.7866 75.8435 48.8141 75.9399 48.8964 76.0913H50.571C50.4612 75.8986 50.4337 75.7747 50.4337 75.4581V73.4621H50.4475ZM48.7866 74.4257C48.7866 74.9075 48.4023 75.2654 47.8807 75.2654C47.5924 75.2654 47.3866 75.1277 47.3866 74.9075C47.3866 74.7973 47.4415 74.701 47.5513 74.6322C47.6474 74.5771 47.6474 74.5771 48.0454 74.4532L48.7866 74.2054V74.4257ZM54.428 71.7139C53.8653 71.7139 53.4809 71.8928 53.1103 72.3333V71.824H51.4769V76.1188H53.2064V73.7787C53.2064 73.352 53.4123 73.118 53.7966 73.118C54.181 73.118 54.3731 73.352 54.3731 73.7787V76.1188H56.1026V73.4621C56.1026 72.8702 55.9516 72.4434 55.6222 72.1544C55.3202 71.8653 54.9084 71.7139 54.428 71.7139ZM29.1858 64.3218L28.074 59.7929H24.6837V68.245H26.9896V65.5882C26.9759 63.7299 26.9759 63.7023 26.9622 63.0829L28.1975 68.2312H30.1741L31.4094 63.0829L31.382 64.5833V68.2312H33.6879V59.7929H30.2976L29.1858 64.3218ZM43.7354 64.074C43.7354 61.3897 42.0059 59.6002 39.398 59.6002C36.8312 59.6002 35.0606 61.4035 35.0606 64.0052C35.0606 66.6206 36.8312 68.4239 39.398 68.4239C41.9373 68.4239 43.7354 66.6344 43.7354 64.074ZM39.4117 66.3178C38.3548 66.3178 37.6822 65.423 37.6822 64.0189C37.6822 62.6286 38.3548 61.7201 39.398 61.7201C40.4549 61.7201 41.1275 62.6149 41.1275 64.0327C41.1275 65.4093 40.4412 66.3178 39.4117 66.3178ZM47.5238 62.0367H51.724V59.7929H44.9982V68.245H47.5238V65.2578H50.9553V63.1517H47.5238V62.0367ZM57.283 59.7929H54.6339L51.6416 68.245H54.2496L54.6339 67.0749H57.283L57.6536 68.245H60.3165L57.283 59.7929ZM55.2241 65.2165L55.9653 62.7938L56.7066 65.2165H55.2241Z" fill="white"/>
  <path d="M41.4005 0.737183C41.4005 5.36112 41.4005 9.86818 41.4005 14.4014C36.0738 14.7827 31.7136 16.9909 28.5455 21.3581C26.3976 24.3197 25.4019 27.6673 25.5477 31.3148C25.8867 39.7754 32.7231 46.5244 41.3928 46.9135C41.3928 47.3471 41.3928 47.7823 41.3928 48.2882C35.4877 47.9422 30.6013 45.5464 26.8349 40.9932C21.9883 35.1345 20.8377 26.737 24.5919 19.3559C24.0948 19.1053 23.5977 18.8546 23.0561 18.5809C22.9181 18.8577 22.7754 19.1237 22.6511 19.3975C21.0908 22.8373 20.4373 26.4448 20.8147 30.203C21.4176 36.2109 24.1071 41.1147 28.7986 44.896C31.7918 47.3087 35.2223 48.7541 39.0133 49.3385C39.6975 49.4446 40.3925 49.4969 41.086 49.5368C41.356 49.5522 41.4296 49.6306 41.4204 49.8951C41.4005 50.4779 41.4143 51.0607 41.4143 51.7158C33.6636 51.2868 27.2506 48.1867 22.4302 42.1219C16.0848 34.1381 14.997 23.5293 19.6533 14.6613C24.2267 5.9516 31.6261 1.49374 41.4005 0.737183ZM29.1607 13.388C30.8575 12.3178 32.5083 11.2783 34.176 10.2265C33.9995 9.87126 33.7786 9.40841 33.5362 8.96093C33.5009 8.8948 33.3291 8.83483 33.2616 8.86559C31.3883 9.72671 29.6593 10.8185 28.0776 12.1901C28.4688 12.6207 28.8508 13.0451 29.1607 13.388Z" fill="black"/>
  <path d="M50.2991 2.1134C52.7324 2.93762 54.9585 4.08015 57.0066 5.56559C60.9986 8.46266 63.9458 12.1901 65.7884 16.7725C67.453 20.9151 67.9792 25.2131 67.3901 29.6417C66.6414 35.2759 64.2511 40.1275 60.2806 44.1594C56.508 47.9898 51.9438 50.3933 46.637 51.3129C45.5539 51.5005 44.4477 51.5574 43.3539 51.685C43.1283 51.7111 43.047 51.6527 43.0547 51.4128C43.0716 50.89 43.0716 50.3672 43.0547 49.8443C43.047 49.6121 43.1283 49.5537 43.3492 49.5414C47.5667 49.3231 51.416 48.0083 54.8404 45.5372C58.8768 42.6247 61.6752 38.785 62.9593 33.9535C64.8955 26.6662 63.3766 20.0955 58.5424 14.3322C56.37 11.7426 53.6483 9.85892 50.5339 8.5457C50.425 8.49957 50.2884 8.34272 50.2884 8.23662C50.2731 6.25757 50.2777 4.28006 50.2792 2.30101C50.2777 2.25487 50.2884 2.20567 50.2991 2.1134Z" fill="black"/>
  <path d="M43.1021 0.754028C44.2589 0.890886 45.4049 1.00468 46.5418 1.17075C47.2153 1.26917 47.8765 1.45984 48.5469 1.58747C48.8492 1.64591 48.9474 1.77354 48.9458 2.09492C48.929 4.56604 48.9412 7.03563 48.9305 9.50675C48.929 9.76355 49.0103 9.87119 49.2496 9.96499C53.8476 11.7518 57.3655 14.7888 59.7312 19.136C61.7318 22.8127 62.4437 26.7523 61.9543 30.8934C61.5262 34.5132 60.1715 37.7747 57.9132 40.641C54.7957 44.5961 50.747 47.0272 45.8161 47.9775C44.9278 48.1482 44.0165 48.2036 43.0622 48.3189C43.0622 47.8376 43.0469 47.4193 43.0791 47.0072C43.0837 46.9457 43.3123 46.8642 43.4411 46.855C45.2668 46.7058 47.0358 46.3014 48.7019 45.5433C54.1283 43.0706 57.4882 38.9234 58.4456 32.9986C59.1452 28.6637 58.1111 24.6687 55.4999 21.1335C52.7353 17.3891 48.975 15.2748 44.4092 14.5566C44.0472 14.4997 43.6743 14.509 43.3123 14.4521C43.2187 14.4382 43.0699 14.2937 43.0699 14.2091C43.0591 9.79123 43.0607 5.37181 43.0622 0.953932C43.0622 0.923178 43.0729 0.893961 43.1021 0.754028Z" fill="black"/>
</svg>
